<svg xmlns="http://www.w3.org/2000/svg" viewBox="0 0 50.47 279.07"><g id="Calque_2" data-name="Calque 2"><g id="Calque_1-2" data-name="Calque 1"><path d="M48.89,279.07v-1.66a3,3,0,0,0-3.17-3.17H8a3.23,3.23,0,0,0-2.34.87,3,3,0,0,0-.9,2.3v1.66h-1v-6.63A2.6,2.6,0,0,1,5,270.32a4.94,4.94,0,0,1,3-.9h37.3a3,3,0,0,0,3.17-3.17V252.36a3,3,0,0,0-3.17-3.17H42.48v-1.95h4.39a3.07,3.07,0,0,1,2.31.9,3.28,3.28,0,0,1,.86,2.34v28.59Z"/><path d="M41.47,244.94A14.11,14.11,0,0,1,35,243.46a15.6,15.6,0,0,1-5-4,17.58,17.58,0,0,1-3.2-5.76,20.77,20.77,0,0,1-1.12-6.8v-2.38h-.29a12.18,12.18,0,0,0-4.46.69,6.74,6.74,0,0,0-2.7,1.8,5.77,5.77,0,0,0-1.3,2.48,11.86,11.86,0,0,0-.32,2.67A10,10,0,0,0,17,235a14.06,14.06,0,0,0,1.11,2.77,2.62,2.62,0,0,0,1.15.94c.53.24,1.07.46,1.62.68a7.6,7.6,0,0,1,1.48.76,1.32,1.32,0,0,1,.65,1.15v1H18a46,46,0,0,1-1.91-6.09,24.46,24.46,0,0,1-.68-5.51q0-5,2.19-7.74c1.47-1.84,3.95-2.77,7.46-2.77H40.82c.82,0,1.7,0,2.63-.14a8.31,8.31,0,0,0,2.59-.69A4.72,4.72,0,0,0,48,217.83a3.54,3.54,0,0,0,.51-2.63l1.15-.21a12.07,12.07,0,0,1,.57,3.31,4.54,4.54,0,0,1-.75,2.66,5.15,5.15,0,0,1-2.56,1.73q-1.65.51-1.65,1.59a2.14,2.14,0,0,0,.72,1.51,25.51,25.51,0,0,1,3.2,4.43,11,11,0,0,1,.68,9,9.16,9.16,0,0,1-1.83,3,8.18,8.18,0,0,1-2.85,2A9.07,9.07,0,0,1,41.47,244.94Zm-.86-4.75A7.33,7.33,0,0,0,46,238.1a7.14,7.14,0,0,0,2.13-5.33,6,6,0,0,0-.8-3A23,23,0,0,0,45.5,227a5.86,5.86,0,0,0-2.26-1.8,6.8,6.8,0,0,0-2.85-.65H26.71v2.52a12.58,12.58,0,0,0,1.15,5.44,13,13,0,0,0,7.49,6.77A15.51,15.51,0,0,0,40.61,240.19Z"/><path d="M32.69,193.32a21.81,21.81,0,0,1-6.91-1,15.75,15.75,0,0,1-5.51-3.06,13.84,13.84,0,0,1-3.64-5,16.58,16.58,0,0,1-1.29-6.7,30.44,30.44,0,0,1,.39-4.86c.27-1.61.59-3.18,1-4.72h6.2v.58a1,1,0,0,1-1,1.08l-1.95.22a1.66,1.66,0,0,0-.93.28,3.26,3.26,0,0,0-.72.65,15.11,15.11,0,0,0-1.37,2.92,10.21,10.21,0,0,0-.5,3.35A8.61,8.61,0,0,0,18,182.3a13.1,13.1,0,0,0,4,3.57,18.54,18.54,0,0,0,5.29,2,23.81,23.81,0,0,0,11.34-.07,17.17,17.17,0,0,0,5.25-2.24,11.72,11.72,0,0,0,3.78-3.92A11,11,0,0,0,49.1,176a21.27,21.27,0,0,0-.39-4,26.55,26.55,0,0,0-1.12-4h1.08a24.53,24.53,0,0,1,1.73,8.72A17.49,17.49,0,0,1,49,183.81,15,15,0,0,1,45.29,189a15.84,15.84,0,0,1-5.62,3.21A22,22,0,0,1,32.69,193.32Z"/><path d="M41.47,164.45A14.24,14.24,0,0,1,35,163a15.6,15.6,0,0,1-5-4,17.78,17.78,0,0,1-3.2-5.76,20.77,20.77,0,0,1-1.12-6.8v-2.38h-.29a12.41,12.41,0,0,0-4.46.68,7,7,0,0,0-2.7,1.8,5.86,5.86,0,0,0-1.3,2.49,11.85,11.85,0,0,0-.32,2.66,9.92,9.92,0,0,0,.4,2.77,14.14,14.14,0,0,0,1.11,2.78,2.6,2.6,0,0,0,1.15.93q.8.36,1.62.69a7.07,7.07,0,0,1,1.48.75,1.33,1.33,0,0,1,.65,1.15v1H18a46.29,46.29,0,0,1-1.91-6.08,24.53,24.53,0,0,1-.68-5.51q0-5,2.19-7.74c1.47-1.85,3.95-2.77,7.46-2.77H40.82a24.71,24.71,0,0,0,2.63-.15,8,8,0,0,0,2.59-.68A4.72,4.72,0,0,0,48,137.34a3.55,3.55,0,0,0,.51-2.63l1.15-.22a12.14,12.14,0,0,1,.57,3.32,4.56,4.56,0,0,1-.75,2.66,5.15,5.15,0,0,1-2.56,1.73c-1.1.33-1.65.86-1.65,1.58a2.13,2.13,0,0,0,.72,1.51,25.89,25.89,0,0,1,3.2,4.43,11,11,0,0,1,.68,9,9.26,9.26,0,0,1-1.83,3,8.31,8.31,0,0,1-2.85,2A9.07,9.07,0,0,1,41.47,164.45Zm-.86-4.76A7.32,7.32,0,0,0,46,157.61a7.16,7.16,0,0,0,2.13-5.33,6,6,0,0,0-.8-2.95,23,23,0,0,0-1.8-2.81,5.77,5.77,0,0,0-2.26-1.8,6.8,6.8,0,0,0-2.85-.65H26.71v2.52A12.58,12.58,0,0,0,27.86,152a13.44,13.44,0,0,0,3.06,4.14,13.17,13.17,0,0,0,4.43,2.62A15.51,15.51,0,0,0,40.61,159.69Z"/><path d="M0,128.88a3.16,3.16,0,0,1,.86-2.31,3.16,3.16,0,0,1,2.31-.86H44.28q1.36-2.44,2.56-5.08A14.07,14.07,0,0,0,48,114.77a8,8,0,0,0-1.44-4.9,10,10,0,0,0-3.67-3.06,17.12,17.12,0,0,0-4.82-1.55,30.09,30.09,0,0,0-5-.43,43.17,43.17,0,0,0-5,.32,16.62,16.62,0,0,0-4.9,1.34,9.72,9.72,0,0,0-3.7,2.88,7.73,7.73,0,0,0-1.48,5,11,11,0,0,0,1.15,5,17,17,0,0,0,3,4.25,11.41,11.41,0,0,1-2.78-2.05,14.05,14.05,0,0,1-2.16-2.77,14.33,14.33,0,0,1-1.4-3.21,11.7,11.7,0,0,1-.5-3.42,10.55,10.55,0,0,1,1.47-5.72,11.29,11.29,0,0,1,3.85-3.74,17.29,17.29,0,0,1,5.33-2,28.52,28.52,0,0,1,5.83-.61,30.86,30.86,0,0,1,6.56.72,18.84,18.84,0,0,1,6,2.37,13.73,13.73,0,0,1,4.36,4.32A11.84,11.84,0,0,1,50.4,114a12.49,12.49,0,0,1-.94,5,46.44,46.44,0,0,1-2.23,4.47,2.43,2.43,0,0,0-.5,1.37c0,.86.65,1.29,1.94,1.29h.87v4H4.32A3.23,3.23,0,0,0,2,131a3,3,0,0,0-.9,2.3v1.66H0Z"/><path d="M41.47,95.76A14.11,14.11,0,0,1,35,94.28a15.6,15.6,0,0,1-5-4,17.58,17.58,0,0,1-3.2-5.76,20.77,20.77,0,0,1-1.12-6.8V75.38h-.29a12.18,12.18,0,0,0-4.46.69,6.74,6.74,0,0,0-2.7,1.8,5.77,5.77,0,0,0-1.3,2.48A11.85,11.85,0,0,0,16.56,83a10,10,0,0,0,.4,2.78,14.06,14.06,0,0,0,1.11,2.77,2.69,2.69,0,0,0,1.15.94c.53.24,1.07.46,1.62.68a7.58,7.58,0,0,1,1.48.75A1.35,1.35,0,0,1,23,92.09v1H18A46.29,46.29,0,0,1,16.09,87a24.46,24.46,0,0,1-.68-5.51q0-5,2.19-7.74C19.07,71.92,21.55,71,25.06,71H40.82c.82,0,1.7,0,2.63-.14A8.31,8.31,0,0,0,46,70.16,4.72,4.72,0,0,0,48,68.65,3.54,3.54,0,0,0,48.46,66l1.15-.21a12.07,12.07,0,0,1,.57,3.31,4.56,4.56,0,0,1-.75,2.66,5.15,5.15,0,0,1-2.56,1.73c-1.1.34-1.65.86-1.65,1.58a2.15,2.15,0,0,0,.72,1.52A25.82,25.82,0,0,1,49.14,81a11,11,0,0,1,.68,9A9.16,9.16,0,0,1,48,93a8.18,8.18,0,0,1-2.85,2A9.07,9.07,0,0,1,41.47,95.76ZM40.61,91A7.33,7.33,0,0,0,46,88.92a7.14,7.14,0,0,0,2.13-5.33,6,6,0,0,0-.8-3,23,23,0,0,0-1.8-2.81A5.77,5.77,0,0,0,43.24,76a6.8,6.8,0,0,0-2.85-.65H26.71V77.9a12.58,12.58,0,0,0,1.15,5.44,13,13,0,0,0,7.49,6.77A15.51,15.51,0,0,0,40.61,91Z"/><path d="M22.46,53.93a17.33,17.33,0,0,1-5.18-5,12.39,12.39,0,0,1-1.94-7,9.11,9.11,0,0,1,.79-4,7.26,7.26,0,0,1,2.19-2.7,9.71,9.71,0,0,1,3.24-1.54,15,15,0,0,1,4-.51H45.22A3,3,0,0,0,48.38,30V28.37h1.16v14H48.38V40.75a3,3,0,0,0-3.16-3.17H26.57a22.69,22.69,0,0,0-3.39.25,7.32,7.32,0,0,0-2.73,1,4.88,4.88,0,0,0-1.8,2A7.67,7.67,0,0,0,18,44.21a11,11,0,0,0,1.3,5.25A21,21,0,0,0,22.46,53.93Zm-6.33,10v-6a3,3,0,0,1,3.17-3.17H45.22a3,3,0,0,0,3.16-3.17V49.9h1.16v14H48.38V62.28a3,3,0,0,0-3.16-3.17H20.45a3,3,0,0,0-3.17,3.17v1.66Z"/><path d="M32.47,26.71A22.46,22.46,0,0,1,26,25.78,16.82,16.82,0,0,1,20.52,23a13.46,13.46,0,0,1-3.78-4.57,13.6,13.6,0,0,1-1.4-6.33,11.87,11.87,0,0,1,1.29-5.8,10.38,10.38,0,0,1,3.46-3.74,14.16,14.16,0,0,1,5-2A29.07,29.07,0,0,1,31,0V18.79a3.07,3.07,0,0,0,.9,2.31,2.85,2.85,0,0,0,2.34.72,30.92,30.92,0,0,0,5.44-1.23,18,18,0,0,0,4.86-2.37A12.33,12.33,0,0,0,48,14.51a9.88,9.88,0,0,0,1.33-5.22,19.11,19.11,0,0,0-.58-4.65A28.55,28.55,0,0,0,47.16,0h1.08a32.84,32.84,0,0,1,1.62,5.33,24.05,24.05,0,0,1,.54,4.89,16.31,16.31,0,0,1-1.44,7,15.78,15.78,0,0,1-3.85,5.19,16.29,16.29,0,0,1-5.69,3.2A22,22,0,0,1,32.47,26.71ZM29.88,7.92A3.17,3.17,0,0,0,29,5.58a2.77,2.77,0,0,0-2.34-.76A23.44,23.44,0,0,0,23,5.26a11.23,11.23,0,0,0-3.28,1.18,6.61,6.61,0,0,0-2.37,2.27,7,7,0,0,0-.9,3.75,7.49,7.49,0,0,0,1.29,4.6A8.88,8.88,0,0,0,21,19.76a14.83,14.83,0,0,0,4.35,1.34c1.59.24,3.1.4,4.54.5Z"/></g></g></svg>