<svg xmlns="http://www.w3.org/2000/svg" viewBox="0 0 453.68 166.15"><g id="Calque_2" data-name="Calque 2"><g id="Calque_1-2" data-name="Calque 1"><path d="M1.57,0H5.7V.67h-1a1.66,1.66,0,0,0-1.41.58,1.67,1.67,0,0,0-.22,1.53L8.05,24c.19.64.39,1,.58,1s.4-.3.52-.91L15.83.86a.9.9,0,0,1,.91-.62.93.93,0,0,1,.53.17.84.84,0,0,1,.33.45l6.58,23.19c.19.61.38.91.58.91s.44-.3.57-.91l5.9-21.27a1.59,1.59,0,0,0-.16-1.53A1.7,1.7,0,0,0,29.65.67H28.36V0h6.23V.67h-.76a1.33,1.33,0,0,0-.8.27,1.14,1.14,0,0,0-.45.64l-8,29.09a.7.7,0,0,1-.76.58.69.69,0,0,1-.73-.58l-6.91-24c-.13-.6-.32-.91-.57-.91S15.2,6,15,6.62L8,30.77a.6.6,0,0,1-.68.48.6.6,0,0,1-.62-.48L.08,2.78A2.7,2.7,0,0,1,.3.84,1.4,1.4,0,0,1,1.57,0Z"/><path d="M36.23,19.15a15.09,15.09,0,0,1,.62-4.32,11.32,11.32,0,0,1,1.85-3.65A8.82,8.82,0,0,1,46,7.73a8,8,0,0,1,3.87.86,7,7,0,0,1,2.49,2.31,9.49,9.49,0,0,1,1.32,3.33A19.42,19.42,0,0,1,54,18.14H41.51a2,2,0,0,0-1.54.6,1.9,1.9,0,0,0-.48,1.56,20.22,20.22,0,0,0,.82,3.63,11.9,11.9,0,0,0,1.58,3.24,8.3,8.3,0,0,0,2.47,2.33,6.62,6.62,0,0,0,3.48.88,12.71,12.71,0,0,0,3.1-.38A19.58,19.58,0,0,0,54,28.94v.72a21.76,21.76,0,0,1-3.56,1.08,16,16,0,0,1-3.26.36,10.87,10.87,0,0,1-4.68-1,10.58,10.58,0,0,1-3.46-2.56A10.88,10.88,0,0,1,37,23.78,14.67,14.67,0,0,1,36.23,19.15Zm12.53-1.73a2.13,2.13,0,0,0,1.56-.6,1.87,1.87,0,0,0,.5-1.56,15.2,15.2,0,0,0-.29-2.44,7.42,7.42,0,0,0-.79-2.19,4.4,4.4,0,0,0-1.51-1.58,4.65,4.65,0,0,0-2.5-.6,5,5,0,0,0-3.07.86,6,6,0,0,0-1.8,2.19A9.92,9.92,0,0,0,40,14.4c-.16,1.06-.27,2.06-.33,3Z"/><path d="M76.21,8.26h4.27V9H79.09a1.63,1.63,0,0,0-1.37.53A1.61,1.61,0,0,0,77.6,11l4.71,16.13,7.1-18.91h1.34l6.63,19L102.66,11a5.08,5.08,0,0,1,1.1-2,2.07,2.07,0,0,1,1.49-.76h1.1V9h-.48a2.48,2.48,0,0,0-1.44.44,2.18,2.18,0,0,0-.86,1.2L97,30.82H95.84L89.07,11.38,81.78,30.82H80.63L74.87,11A2.47,2.47,0,0,1,75,9.1,1.36,1.36,0,0,1,76.21,8.26Z"/><path d="M110.53,25.15a9.4,9.4,0,0,1,1-4.34,10.45,10.45,0,0,1,2.63-3.34A11.74,11.74,0,0,1,118,15.34a13.8,13.8,0,0,1,4.53-.75h1.59V14.4a8.29,8.29,0,0,0-.46-3,4.81,4.81,0,0,0-1.2-1.8,3.84,3.84,0,0,0-1.66-.86A7.93,7.93,0,0,0,119,8.54a6.63,6.63,0,0,0-1.85.27,9.28,9.28,0,0,0-1.85.74,1.68,1.68,0,0,0-.62.77c-.16.35-.31.71-.46,1.08a4.73,4.73,0,0,1-.5,1,.89.89,0,0,1-.77.44h-.67V9.5a32.2,32.2,0,0,1,4-1.27A16.35,16.35,0,0,1,120,7.78a8.07,8.07,0,0,1,5.15,1.46c1.24,1,1.85,2.63,1.85,5V24.72a15.67,15.67,0,0,0,.1,1.75,5.39,5.39,0,0,0,.46,1.73,3.17,3.17,0,0,0,1,1.27,2.4,2.4,0,0,0,1.76.34l.14.77a8.18,8.18,0,0,1-2.21.38,3.05,3.05,0,0,1-1.77-.5,3.47,3.47,0,0,1-1.16-1.71c-.22-.73-.57-1.1-1-1.1a1.41,1.41,0,0,0-1,.48,17.09,17.09,0,0,1-3,2.13,6.83,6.83,0,0,1-3.48.89,7,7,0,0,1-2.5-.43,6.19,6.19,0,0,1-2-1.22A5.49,5.49,0,0,1,111,27.6,6.09,6.09,0,0,1,110.53,25.15Zm3.17-.57a4.86,4.86,0,0,0,1.39,3.57,4.75,4.75,0,0,0,3.55,1.42,4,4,0,0,0,2-.53,15.58,15.58,0,0,0,1.87-1.2,3.83,3.83,0,0,0,1.2-1.51,4.5,4.5,0,0,0,.44-1.9V15.31h-1.68a8.34,8.34,0,0,0-3.63.77,8.78,8.78,0,0,0-2.76,2,8.69,8.69,0,0,0-1.75,2.95A10.36,10.36,0,0,0,113.7,24.58Z"/><path d="M134.77,8.26h4a2,2,0,0,1,2.11,2.11V27.65A2,2,0,0,0,143,29.76h1.1v.77h-9.36v-.77h1.1A2,2,0,0,0,138,27.65V11.14A2,2,0,0,0,135.87,9h-1.1Zm6.67,4.22A11.7,11.7,0,0,1,144.8,9a8.31,8.31,0,0,1,4.66-1.29,6,6,0,0,1,2.64.53,4.86,4.86,0,0,1,1.8,1.46,6.36,6.36,0,0,1,1,2.16,10.19,10.19,0,0,1,.34,2.66V27.65a2,2,0,0,0,2.11,2.11h1.1v.77h-9.36v-.77h1.11a2,2,0,0,0,2.11-2.11V15.22a14.62,14.62,0,0,0-.17-2.26,4.8,4.8,0,0,0-.65-1.82,3.19,3.19,0,0,0-1.34-1.2,5,5,0,0,0-2.26-.44,7.32,7.32,0,0,0-3.5.87A13.86,13.86,0,0,0,141.44,12.48Z"/><path d="M161.07,9.12V8.06h3.22V2.93l2.93,2.21V8.06h6.05V9.12h-3.94a2,2,0,0,0-2.11,2.11v13a10.92,10.92,0,0,0,.19,2.07,5.67,5.67,0,0,0,.65,1.8,3.65,3.65,0,0,0,1.27,1.29,3.74,3.74,0,0,0,2,.51,5.89,5.89,0,0,0,1.92-.34v.91a8.78,8.78,0,0,1-1.3.36,6.62,6.62,0,0,1-1.25.12,8.6,8.6,0,0,1-3.07-.48,4.57,4.57,0,0,1-2-1.41,5.72,5.72,0,0,1-1.06-2.28,13.59,13.59,0,0,1-.31-3.08V11.23a2,2,0,0,0-2.11-2.11Z"/><path d="M.66,59.39a15.67,15.67,0,0,1,.67-4.73,10.32,10.32,0,0,1,2-3.69,8.89,8.89,0,0,1,3.31-2.4,11.52,11.52,0,0,1,4.56-.84,11.81,11.81,0,0,1,4.68.86A9.09,9.09,0,0,1,19.23,51a10,10,0,0,1,2,3.69,16.19,16.19,0,0,1,.65,4.68,15.53,15.53,0,0,1-.7,4.75,10.53,10.53,0,0,1-2,3.7,9.38,9.38,0,0,1-3.34,2.4,11.34,11.34,0,0,1-4.58.86,11.18,11.18,0,0,1-4.56-.86,9.17,9.17,0,0,1-3.31-2.42,10.29,10.29,0,0,1-2-3.72A15.72,15.72,0,0,1,.66,59.39Zm4.41,4.08a15.31,15.31,0,0,0,1.66,2.14,15.07,15.07,0,0,0,2.14,1.94A11.33,11.33,0,0,0,11.32,69a6.61,6.61,0,0,0,2.64.55,6.15,6.15,0,0,0,1.63-.22,5.74,5.74,0,0,0,1.63-.74,5.5,5.5,0,0,0,2.33-2.78A8.31,8.31,0,0,0,20,62.22a13.25,13.25,0,0,0-.89-3.69,17.6,17.6,0,0,0-1.63-3.22,18.18,18.18,0,0,0-1.7-2.18,15.77,15.77,0,0,0-2.14-2,11,11,0,0,0-2.47-1.39,7.18,7.18,0,0,0-2.67-.53,6.53,6.53,0,0,0-1.63.22,5.61,5.61,0,0,0-1.63.74,5.58,5.58,0,0,0-2.3,2.84,8.16,8.16,0,0,0-.41,3.52,12.56,12.56,0,0,0,.91,3.68A19.24,19.24,0,0,0,5.07,63.47Z"/><path d="M26.05,48.26h4a2,2,0,0,1,2.11,2.11v13.2a14.49,14.49,0,0,0,.17,2.25A5,5,0,0,0,33,67.65a3.09,3.09,0,0,0,1.32,1.2,5,5,0,0,0,2.25.43,7.51,7.51,0,0,0,3.55-.86,15,15,0,0,0,3-2.12l-.1.15a11.31,11.31,0,0,1-3.33,3.41,8.42,8.42,0,0,1-4.64,1.24,5.84,5.84,0,0,1-2.64-.55,5,5,0,0,1-1.8-1.49,6.56,6.56,0,0,1-1-2.18,10.27,10.27,0,0,1-.33-2.64V51.14A2,2,0,0,0,27.15,49h-1.1ZM40.26,49v-.76h4a2,2,0,0,1,2.11,2.11V67.65a2,2,0,0,0,2.11,2.11h1.11v.77h-4a2,2,0,0,1-2.12-2.11V51.14a2.09,2.09,0,0,0-.57-1.54A2.11,2.11,0,0,0,41.36,49Z"/><path d="M53.94,48.26h4a2,2,0,0,1,2.11,2.11V67.65a2,2,0,0,0,2.11,2.11H63.3v.77H53.94v-.77H55a2,2,0,0,0,2.11-2.11V51.14a2.09,2.09,0,0,0-.57-1.54A2.11,2.11,0,0,0,55,49h-1.1Zm6.57,4.08A11.94,11.94,0,0,1,63.42,49a6.67,6.67,0,0,1,4.2-1.27,4.13,4.13,0,0,1,.72.05v4.7h0c-.83,0-1.25-.4-1.25-1.2s-.38-1.2-1.15-1.2a12.51,12.51,0,0,0-1.49.17,4.85,4.85,0,0,0-1.29.41,9.3,9.3,0,0,0-1.28.72,10.1,10.1,0,0,0-1.36,1.1Z"/><path d="M90.85,65.2l1.58-3.5A6.76,6.76,0,0,1,90,59.1a8.78,8.78,0,0,1-.24-7,6.8,6.8,0,0,1,1.73-2.37,7.76,7.76,0,0,1,2.59-1.47,10.33,10.33,0,0,1,3.27-.5,12.48,12.48,0,0,1,2.25.21,9,9,0,0,1,2.16.7l7.35-.58-.72,2.64-4-1.15c-.64-.16-1-.17-1.08,0s.09.49.51,1A9.11,9.11,0,0,1,105,52.65a6.8,6.8,0,0,1,.46,2.61,8.25,8.25,0,0,1-.62,3.27A7.4,7.4,0,0,1,103.16,61a7.21,7.21,0,0,1-2.59,1.53,10.13,10.13,0,0,1-3.34.53,8.53,8.53,0,0,1-4.12-1l-1.92,4.37a9.15,9.15,0,0,0-.39,1.32,9.66,9.66,0,0,0-.24,1.65,3.54,3.54,0,0,0,.17,1.4.79.79,0,0,0,.79.57A2.37,2.37,0,0,0,92.7,71a9.39,9.39,0,0,0,1.65-1.44L97,66.88c.48-.45,1-.93,1.49-1.44A18,18,0,0,1,100.14,64a8.69,8.69,0,0,1,1.73-1,4.29,4.29,0,0,1,1.8-.41,3.56,3.56,0,0,1,1.44.31A5.63,5.63,0,0,1,108.23,67a7.62,7.62,0,0,1-.39,3.36,12.6,12.6,0,0,1-1.65,3.22A20.6,20.6,0,0,1,104,76.29c-.35.35-.84.8-1.48,1.34a23,23,0,0,1-2.12,1.59A17.12,17.12,0,0,1,98,80.54a5.63,5.63,0,0,1-2.3.55,2.67,2.67,0,0,1-2-.72A3,3,0,0,1,93,78.93a5.4,5.4,0,0,1-.08-1.71,9.91,9.91,0,0,1,.36-1.72c.18-.56.35-1.07.51-1.52A6.41,6.41,0,0,0,94,75.74a5,5,0,0,0,.79,1.58,4.62,4.62,0,0,0,1.3,1.15,3.27,3.27,0,0,0,1.73.46,5.24,5.24,0,0,0,2.93-1,14.41,14.41,0,0,0,2.49-2.07A13.36,13.36,0,0,0,105,73.84a9.66,9.66,0,0,0,1.23-2.47,5.62,5.62,0,0,0,.21-2.57,4.08,4.08,0,0,0-1.29-2.35,3.1,3.1,0,0,0-2.21-1,4.2,4.2,0,0,0-2.26.74A11.29,11.29,0,0,0,98.48,68l-3,3.17c-1.63,1.66-3,2.5-4.23,2.5A2.26,2.26,0,0,1,89,71.27,9.44,9.44,0,0,1,89.34,69a14.86,14.86,0,0,1,.79-2.21C90.45,66.13,90.69,65.58,90.85,65.2Zm3.31-5.57a12.25,12.25,0,0,0,2.33,1.68A5.17,5.17,0,0,0,99,62a4.2,4.2,0,0,0,1.7-.38,5.68,5.68,0,0,0,1.71-1.2,4.58,4.58,0,0,0,1.41-2.28,4.83,4.83,0,0,0,0-2.33,7.22,7.22,0,0,0-1.06-2.23,12.87,12.87,0,0,0-1.7-2,11.88,11.88,0,0,0-2.57-2,5.42,5.42,0,0,0-2.76-.79,4.91,4.91,0,0,0-3.46,1.58,4.51,4.51,0,0,0-1.25,5,8.14,8.14,0,0,0,1.32,2.33A22.49,22.49,0,0,0,94.16,59.63Z"/><path d="M113.6,48.26h4a2.09,2.09,0,0,1,1.54.57,2.11,2.11,0,0,1,.58,1.54v13.2a14.53,14.53,0,0,0,.16,2.25,5.14,5.14,0,0,0,.63,1.83,3.09,3.09,0,0,0,1.32,1.2,5,5,0,0,0,2.25.43,7.58,7.58,0,0,0,3.56-.86,15.23,15.23,0,0,0,3-2.12l-.1.15a11.31,11.31,0,0,1-3.33,3.41,8.41,8.41,0,0,1-4.63,1.24,5.86,5.86,0,0,1-2.65-.55,4.92,4.92,0,0,1-1.79-1.49,6.39,6.39,0,0,1-1-2.18,10.27,10.27,0,0,1-.33-2.64V51.14a2.06,2.06,0,0,0-.58-1.54,2.09,2.09,0,0,0-1.53-.58H113.6Zm14.21.76v-.76h4A2,2,0,0,1,134,50.37V67.65a2.07,2.07,0,0,0,.58,1.53,2,2,0,0,0,1.54.58h1.1v.77h-4A2,2,0,0,1,131,68.42V51.14A2,2,0,0,0,128.91,49Z"/><path d="M141.34,59.15a14.75,14.75,0,0,1,.63-4.32,11.13,11.13,0,0,1,1.85-3.65,9.09,9.09,0,0,1,3-2.52,9.21,9.21,0,0,1,4.23-.93,7.93,7.93,0,0,1,3.86.86,7,7,0,0,1,2.5,2.31,9.68,9.68,0,0,1,1.32,3.33,20.17,20.17,0,0,1,.38,3.91H146.63a2,2,0,0,0-1.54.6,1.83,1.83,0,0,0-.48,1.56,21.09,21.09,0,0,0,.81,3.63A12.22,12.22,0,0,0,147,67.17a8.19,8.19,0,0,0,2.47,2.33,6.62,6.62,0,0,0,3.48.88,12.77,12.77,0,0,0,3.1-.38,19.14,19.14,0,0,0,3.09-1.06v.72a21.66,21.66,0,0,1-3.55,1.08,16,16,0,0,1-3.26.36,10.87,10.87,0,0,1-4.68-1,10.48,10.48,0,0,1-3.46-2.56,10.88,10.88,0,0,1-2.13-3.8A14.67,14.67,0,0,1,141.34,59.15Zm12.53-1.73a2.11,2.11,0,0,0,1.56-.6,1.85,1.85,0,0,0,.51-1.56,16.42,16.42,0,0,0-.29-2.44,7.71,7.71,0,0,0-.79-2.19,4.42,4.42,0,0,0-1.52-1.58,4.64,4.64,0,0,0-2.49-.6,5,5,0,0,0-3.07.86A6,6,0,0,0,146,51.5a9.92,9.92,0,0,0-.89,2.9c-.16,1.06-.27,2.06-.34,3Z"/><path d="M165.06,65.49h.09a1.24,1.24,0,0,1,.87.31,1.11,1.11,0,0,1,.33.84,2.59,2.59,0,0,0,.24,1.06,1.93,1.93,0,0,0,.67.81,18.87,18.87,0,0,0,2.52,1.3,7.09,7.09,0,0,0,2.72.53,7.34,7.34,0,0,0,2-.29,5.31,5.31,0,0,0,1.72-.84,4.13,4.13,0,0,0,1.2-1.39,4.08,4.08,0,0,0,.46-2c0-2-1.41-3.63-4.22-4.75l-2.21-.81c-.71-.29-1.43-.64-2.19-1a10.94,10.94,0,0,1-2-1.39A6.8,6.8,0,0,1,165.78,56a4.74,4.74,0,0,1-.58-2.38,5,5,0,0,1,.67-2.64,6,6,0,0,1,1.73-1.82A7.83,7.83,0,0,1,170,48.09a9.89,9.89,0,0,1,2.61-.36,18.39,18.39,0,0,1,6.53,1.15v3.89H179c-.76,0-1.15-.4-1.15-1.2a1.94,1.94,0,0,0-.6-1.42,4.76,4.76,0,0,0-1.44-1,7.12,7.12,0,0,0-1.75-.55,8.28,8.28,0,0,0-1.58-.17,5.17,5.17,0,0,0-1.78.31,4.47,4.47,0,0,0-1.51.89,4.23,4.23,0,0,0-1,1.37,3.88,3.88,0,0,0-.39,1.75,3.5,3.5,0,0,0,.53,1.92,5.24,5.24,0,0,0,1.37,1.41,9.34,9.34,0,0,0,1.8,1l1.82.79,2,.82c.7.29,1.38.6,2,.94a8.35,8.35,0,0,1,1.75,1.17,5.12,5.12,0,0,1,1.22,1.59,4.77,4.77,0,0,1,.46,2.2,5.65,5.65,0,0,1-.74,3,6.45,6.45,0,0,1-1.95,2,8.34,8.34,0,0,1-2.71,1.15,12.94,12.94,0,0,1-3,.36,18.12,18.12,0,0,1-7.34-1.53Z"/><path d="M185.55,49.12V48.06h3.22V42.93l2.93,2.21v2.92h6v1.06h-3.93a2,2,0,0,0-2.11,2.11v13a10.92,10.92,0,0,0,.19,2.07,5.67,5.67,0,0,0,.65,1.8,3.56,3.56,0,0,0,1.27,1.29,3.7,3.7,0,0,0,2,.51,5.89,5.89,0,0,0,1.92-.34v.91a8.67,8.67,0,0,1-1.29.36,6.62,6.62,0,0,1-1.25.12,8.57,8.57,0,0,1-3.07-.48,4.57,4.57,0,0,1-2-1.41,5.72,5.72,0,0,1-1.06-2.28,13.59,13.59,0,0,1-.31-3.08V51.23a2,2,0,0,0-2.11-2.11Z"/><path d="M202.88,65.49h.1a1.2,1.2,0,0,1,.86.31,1.11,1.11,0,0,1,.34.84,2.59,2.59,0,0,0,.24,1.06,1.86,1.86,0,0,0,.67.81,17.73,17.73,0,0,0,2.52,1.3,7,7,0,0,0,2.71.53,7.34,7.34,0,0,0,2-.29,5.36,5.36,0,0,0,1.73-.84,4.36,4.36,0,0,0,1.2-1.39,4.19,4.19,0,0,0,.45-2c0-2-1.4-3.63-4.22-4.75l-2.21-.81c-.7-.29-1.43-.64-2.18-1a10.94,10.94,0,0,1-2-1.39A6.65,6.65,0,0,1,203.6,56a4.85,4.85,0,0,1-.58-2.38A5,5,0,0,1,203.7,51a5.86,5.86,0,0,1,1.72-1.82,7.94,7.94,0,0,1,2.38-1.08,9.9,9.9,0,0,1,2.62-.36,18.33,18.33,0,0,1,6.52,1.15v3.89h-.09c-.77,0-1.15-.4-1.15-1.2a1.94,1.94,0,0,0-.6-1.42,4.76,4.76,0,0,0-1.44-1,7.2,7.2,0,0,0-1.76-.55,8.12,8.12,0,0,0-1.58-.17,5.17,5.17,0,0,0-1.78.31,4.57,4.57,0,0,0-1.51.89A4.37,4.37,0,0,0,206,51a3.87,3.87,0,0,0-.38,1.75,3.5,3.5,0,0,0,.52,1.92,5.39,5.39,0,0,0,1.37,1.41,9.34,9.34,0,0,0,1.8,1l1.83.79,2,.82c.71.29,1.39.6,2,.94a8.1,8.1,0,0,1,1.75,1.17,5.15,5.15,0,0,1,1.23,1.59,4.9,4.9,0,0,1,.45,2.2,5.56,5.56,0,0,1-.74,3,6.42,6.42,0,0,1-1.94,2,8.39,8.39,0,0,1-2.72,1.15,12.82,12.82,0,0,1-3,.36,18.15,18.15,0,0,1-7.34-1.53Z"/><path d="M122.68,104.12v-1.06h3.21V97.93l2.93,2.21v2.92h6.05v1.06h-3.94a2,2,0,0,0-2.11,2.11v13a11.81,11.81,0,0,0,.19,2.07,5.92,5.92,0,0,0,.65,1.8,3.61,3.61,0,0,0,3.29,1.8,5.89,5.89,0,0,0,1.92-.34v.91a8.78,8.78,0,0,1-1.3.36,6.51,6.51,0,0,1-1.24.12,8.57,8.57,0,0,1-3.07-.48,4.6,4.6,0,0,1-2-1.41,5.71,5.71,0,0,1-1.05-2.28,13.56,13.56,0,0,1-.32-3.08V106.23a2,2,0,0,0-2.11-2.11Z"/><path d="M138.57,114.39a15.67,15.67,0,0,1,.67-4.73,10.46,10.46,0,0,1,2-3.69,8.93,8.93,0,0,1,3.32-2.4,11.52,11.52,0,0,1,4.56-.84,11.81,11.81,0,0,1,4.68.86,9.18,9.18,0,0,1,3.33,2.43,10,10,0,0,1,2,3.69,15.85,15.85,0,0,1,.65,4.68,15.53,15.53,0,0,1-.69,4.75,10.53,10.53,0,0,1-2,3.7,9.38,9.38,0,0,1-3.34,2.4,11.37,11.37,0,0,1-4.58.86,11.18,11.18,0,0,1-4.56-.86,9.2,9.2,0,0,1-3.32-2.42,10.43,10.43,0,0,1-2-3.72A15.72,15.72,0,0,1,138.57,114.39Zm4.41,4.08a15.31,15.31,0,0,0,1.66,2.14,15,15,0,0,0,2.13,1.94,11.83,11.83,0,0,0,2.45,1.42,6.68,6.68,0,0,0,2.64.55,6,6,0,0,0,1.63-.22,5.67,5.67,0,0,0,1.64-.74,5.48,5.48,0,0,0,2.32-2.78,8.31,8.31,0,0,0,.44-3.56,13.52,13.52,0,0,0-.89-3.69,18.25,18.25,0,0,0-1.63-3.22,17.33,17.33,0,0,0-1.71-2.18,15.69,15.69,0,0,0-2.13-1.95,11,11,0,0,0-2.48-1.39,7.13,7.13,0,0,0-2.66-.53,6.53,6.53,0,0,0-1.63.22,5.5,5.5,0,0,0-1.63.74,5.6,5.6,0,0,0-2.31,2.84,8.47,8.47,0,0,0-.41,3.52,12.91,12.91,0,0,0,.92,3.68A18.51,18.51,0,0,0,143,118.47Z"/><path d="M183,92.5a2,2,0,0,1,2.12,2.12V122c1.08.61,2.21,1.18,3.38,1.71a9.36,9.36,0,0,0,3.91.79,5.37,5.37,0,0,0,3.27-1,6.86,6.86,0,0,0,2-2.45,11.38,11.38,0,0,0,1-3.21,20.52,20.52,0,0,0,.29-3.32,28.94,28.94,0,0,0-.22-3.36,11,11,0,0,0-.89-3.26,6.51,6.51,0,0,0-1.92-2.47,5.16,5.16,0,0,0-3.31-1,7.41,7.41,0,0,0-3.36.77,11.47,11.47,0,0,0-2.83,2,7.58,7.58,0,0,1,1.37-1.85,9.43,9.43,0,0,1,1.84-1.44,9.94,9.94,0,0,1,2.14-.94,8.06,8.06,0,0,1,2.28-.33,7.09,7.09,0,0,1,3.82,1,7.47,7.47,0,0,1,2.49,2.57,11.63,11.63,0,0,1,1.35,3.55,19.25,19.25,0,0,1,.4,3.89,20.52,20.52,0,0,1-.48,4.37,12.38,12.38,0,0,1-1.58,4,9.2,9.2,0,0,1-2.88,2.91A7.89,7.89,0,0,1,193,126.1a8.33,8.33,0,0,1-3.36-.62,33.09,33.09,0,0,1-3-1.49,1.62,1.62,0,0,0-.91-.33c-.57,0-.86.43-.86,1.29v.58H182.2V95.38a2.14,2.14,0,0,0-.58-1.56,2,2,0,0,0-1.53-.6H179V92.5Z"/><path d="M208.21,114.15a14.75,14.75,0,0,1,.63-4.32,11.13,11.13,0,0,1,1.85-3.65,9.09,9.09,0,0,1,3-2.52,9.21,9.21,0,0,1,4.23-.93,8,8,0,0,1,3.86.86,7,7,0,0,1,2.5,2.31,9.68,9.68,0,0,1,1.32,3.33,20.17,20.17,0,0,1,.38,3.91H213.49a2,2,0,0,0-1.53.6,1.83,1.83,0,0,0-.48,1.56,21.09,21.09,0,0,0,.81,3.63,12.22,12.22,0,0,0,1.59,3.24,8.19,8.19,0,0,0,2.47,2.33,6.62,6.62,0,0,0,3.48.88,12.77,12.77,0,0,0,3.1-.38,19.47,19.47,0,0,0,3.09-1.06v.72a21.66,21.66,0,0,1-3.55,1.08,16,16,0,0,1-3.26.36,10.87,10.87,0,0,1-4.68-1,10.48,10.48,0,0,1-3.46-2.56,10.9,10.9,0,0,1-2.14-3.8A14.67,14.67,0,0,1,208.21,114.15Zm12.53-1.73a2.11,2.11,0,0,0,1.56-.6,1.85,1.85,0,0,0,.51-1.56,16.42,16.42,0,0,0-.29-2.44,7.71,7.71,0,0,0-.79-2.19,4.42,4.42,0,0,0-1.52-1.58,4.64,4.64,0,0,0-2.49-.6,5,5,0,0,0-3.07.86,6,6,0,0,0-1.8,2.19,9.63,9.63,0,0,0-.89,2.9c-.16,1.06-.27,2.06-.34,3Z"/><path d="M247.19,120.15a9.52,9.52,0,0,1,1-4.34,10.62,10.62,0,0,1,2.64-3.34,11.79,11.79,0,0,1,3.84-2.13,13.9,13.9,0,0,1,4.54-.75h1.58v-.19a8.31,8.31,0,0,0-.45-3,4.81,4.81,0,0,0-1.2-1.8,3.84,3.84,0,0,0-1.66-.86,8,8,0,0,0-1.78-.22,6.61,6.61,0,0,0-1.84.27,9,9,0,0,0-1.85.74,1.7,1.7,0,0,0-.63.77q-.24.53-.45,1.08a4.75,4.75,0,0,1-.51,1,.87.87,0,0,1-.76.44H249V104.5a32.32,32.32,0,0,1,4.06-1.27,16.33,16.33,0,0,1,3.67-.45,8.08,8.08,0,0,1,5.16,1.46c1.23,1,1.85,2.63,1.85,5v10.51a15.67,15.67,0,0,0,.1,1.75,5.38,5.38,0,0,0,.45,1.73,3.19,3.19,0,0,0,1,1.27,2.37,2.37,0,0,0,1.75.34l.15.77A8.24,8.24,0,0,1,265,126a3.08,3.08,0,0,1-1.78-.5,3.46,3.46,0,0,1-1.15-1.71c-.22-.73-.58-1.1-1.06-1.1a1.41,1.41,0,0,0-1,.48,17.48,17.48,0,0,1-2.95,2.13,6.88,6.88,0,0,1-3.48.89,7,7,0,0,1-2.5-.43,6.34,6.34,0,0,1-2-1.22,5.6,5.6,0,0,1-1.34-1.9A6.09,6.09,0,0,1,247.19,120.15Zm3.17-.57a4.86,4.86,0,0,0,1.39,3.57,4.75,4.75,0,0,0,3.55,1.42,4.07,4.07,0,0,0,2-.53,16.41,16.41,0,0,0,1.87-1.2,3.92,3.92,0,0,0,1.2-1.51,4.49,4.49,0,0,0,.43-1.9v-9.12h-1.68a8.32,8.32,0,0,0-3.62.77,8.78,8.78,0,0,0-2.76,2,8.69,8.69,0,0,0-1.75,2.95A10.36,10.36,0,0,0,250.36,119.58Z"/><path d="M273.92,92.5A2,2,0,0,1,276,94.62V122c1.08.61,2.21,1.18,3.38,1.71a9.36,9.36,0,0,0,3.91.79,5.37,5.37,0,0,0,3.27-1,6.86,6.86,0,0,0,2-2.45,11.38,11.38,0,0,0,1-3.21,20.52,20.52,0,0,0,.29-3.32,28.94,28.94,0,0,0-.22-3.36,11,11,0,0,0-.89-3.26,6.51,6.51,0,0,0-1.92-2.47,5.16,5.16,0,0,0-3.31-1,7.41,7.41,0,0,0-3.36.77,11.47,11.47,0,0,0-2.83,2,7.58,7.58,0,0,1,1.37-1.85,9.14,9.14,0,0,1,1.84-1.44,9.94,9.94,0,0,1,2.14-.94,8.06,8.06,0,0,1,2.28-.33,7.09,7.09,0,0,1,3.82,1,7.47,7.47,0,0,1,2.49,2.57,11.63,11.63,0,0,1,1.35,3.55,19.25,19.25,0,0,1,.4,3.89,20.52,20.52,0,0,1-.48,4.37,12.38,12.38,0,0,1-1.58,4,9.2,9.2,0,0,1-2.88,2.91,7.89,7.89,0,0,1-4.32,1.12,8.33,8.33,0,0,1-3.36-.62,33.09,33.09,0,0,1-3-1.49,1.62,1.62,0,0,0-.91-.33c-.57,0-.86.43-.86,1.29v.58h-2.64V95.38a2.14,2.14,0,0,0-.58-1.56,2,2,0,0,0-1.53-.6h-1.11V92.5Z"/><path d="M296.87,124.76H298a2,2,0,0,0,2.11-2.11V95.38a2.17,2.17,0,0,0-.57-1.56,2,2,0,0,0-1.54-.6h-1.1V92.5h4a2.11,2.11,0,0,1,1.54.58,2.09,2.09,0,0,1,.57,1.54v28a2,2,0,0,0,2.11,2.11h1.11v.77h-9.36Z"/><path d="M310.31,114.15a15.09,15.09,0,0,1,.62-4.32,11.32,11.32,0,0,1,1.85-3.65,8.82,8.82,0,0,1,7.27-3.45,8,8,0,0,1,3.87.86,6.92,6.92,0,0,1,2.49,2.31,9.3,9.3,0,0,1,1.32,3.33,19.42,19.42,0,0,1,.39,3.91H315.59a2,2,0,0,0-1.54.6,1.9,1.9,0,0,0-.48,1.56,21.12,21.12,0,0,0,.82,3.63,11.9,11.9,0,0,0,1.58,3.24,8.3,8.3,0,0,0,2.47,2.33,6.62,6.62,0,0,0,3.48.88A12.71,12.71,0,0,0,325,125a19.58,19.58,0,0,0,3.1-1.06v.72a21.76,21.76,0,0,1-3.56,1.08,16,16,0,0,1-3.26.36,10.87,10.87,0,0,1-4.68-1,10.58,10.58,0,0,1-3.46-2.56,10.88,10.88,0,0,1-2.13-3.8A14.67,14.67,0,0,1,310.31,114.15Zm12.53-1.73a2.11,2.11,0,0,0,1.56-.6,1.84,1.84,0,0,0,.5-1.56,15.2,15.2,0,0,0-.29-2.44,7.42,7.42,0,0,0-.79-2.19,4.4,4.4,0,0,0-1.51-1.58,4.65,4.65,0,0,0-2.5-.6,5,5,0,0,0-3.07.86,6,6,0,0,0-1.8,2.19,9.92,9.92,0,0,0-.89,2.9c-.16,1.06-.27,2.06-.33,3Z"/><path d="M348.42,104.12v-1.06h3.22V97.93l2.92,2.21v2.92h6.05v1.06h-3.94a2.05,2.05,0,0,0-1.53.58,2.07,2.07,0,0,0-.58,1.53v13a10.92,10.92,0,0,0,.2,2.07,5.66,5.66,0,0,0,.64,1.8,3.61,3.61,0,0,0,3.29,1.8,5.89,5.89,0,0,0,1.92-.34v.91a9,9,0,0,1-1.29.36,6.69,6.69,0,0,1-1.25.12,8.57,8.57,0,0,1-3.07-.48,4.6,4.6,0,0,1-2-1.41,5.85,5.85,0,0,1-1.05-2.28,13.59,13.59,0,0,1-.31-3.08V106.23a2,2,0,0,0-2.12-2.11Z"/><path d="M364.31,114.39a15.67,15.67,0,0,1,.67-4.73,10.32,10.32,0,0,1,2-3.69,8.81,8.81,0,0,1,3.31-2.4,11.52,11.52,0,0,1,4.56-.84,11.81,11.81,0,0,1,4.68.86,9.18,9.18,0,0,1,3.33,2.43,10.13,10.13,0,0,1,2,3.69,16.19,16.19,0,0,1,.64,4.68,15.53,15.53,0,0,1-.69,4.75,10.53,10.53,0,0,1-2,3.7,9.38,9.38,0,0,1-3.34,2.4,11.37,11.37,0,0,1-4.58.86,11.18,11.18,0,0,1-4.56-.86,9.08,9.08,0,0,1-3.31-2.42,10.29,10.29,0,0,1-2-3.72A15.72,15.72,0,0,1,364.31,114.39Zm4.41,4.08a15.31,15.31,0,0,0,1.66,2.14,15,15,0,0,0,2.13,1.94A11.83,11.83,0,0,0,375,124a6.68,6.68,0,0,0,2.64.55,6.17,6.17,0,0,0,1.64-.22,5.74,5.74,0,0,0,1.63-.74,5.48,5.48,0,0,0,2.32-2.78,8.31,8.31,0,0,0,.44-3.56,13.52,13.52,0,0,0-.89-3.69,18.25,18.25,0,0,0-1.63-3.22,17.33,17.33,0,0,0-1.71-2.18,15.69,15.69,0,0,0-2.13-1.95,11.17,11.17,0,0,0-2.47-1.39,7.18,7.18,0,0,0-2.67-.53,6.53,6.53,0,0,0-1.63.22,5.5,5.5,0,0,0-1.63.74,5.6,5.6,0,0,0-2.31,2.84,8.31,8.31,0,0,0-.4,3.52,12.56,12.56,0,0,0,.91,3.68A18.51,18.51,0,0,0,368.72,118.47Z"/><path d="M122.68,144.12v-1.06h3.21v-5.13l2.93,2.21v2.92h6.05v1.06h-3.94a2,2,0,0,0-2.11,2.11v13a11.81,11.81,0,0,0,.19,2.07,5.92,5.92,0,0,0,.65,1.8,3.61,3.61,0,0,0,3.29,1.8,5.89,5.89,0,0,0,1.92-.34v.91a8.78,8.78,0,0,1-1.3.36,6.51,6.51,0,0,1-1.24.12,8.57,8.57,0,0,1-3.07-.48,4.6,4.6,0,0,1-2-1.41,5.71,5.71,0,0,1-1.05-2.28,13.56,13.56,0,0,1-.32-3.08V146.23a2,2,0,0,0-2.11-2.11Z"/><path d="M139.77,160.15a9.39,9.39,0,0,1,1-4.34,10.62,10.62,0,0,1,2.64-3.34,11.59,11.59,0,0,1,3.84-2.13,13.9,13.9,0,0,1,4.54-.75h1.58v-.19a8.07,8.07,0,0,0-.46-3,4.59,4.59,0,0,0-1.2-1.8,3.75,3.75,0,0,0-1.65-.86,8,8,0,0,0-1.78-.22,6.68,6.68,0,0,0-1.85.27,9,9,0,0,0-1.84.74,1.7,1.7,0,0,0-.63.77q-.24.52-.45,1.08a5.29,5.29,0,0,1-.51,1,.89.89,0,0,1-.77.44h-.67V144.5a32.32,32.32,0,0,1,4.06-1.27,16.27,16.27,0,0,1,3.67-.45,8.08,8.08,0,0,1,5.16,1.46c1.23,1,1.85,2.63,1.85,5v10.51c0,.54,0,1.13.09,1.75a5.66,5.66,0,0,0,.46,1.73,3.19,3.19,0,0,0,1,1.27,2.36,2.36,0,0,0,1.75.34l.14.77a8.18,8.18,0,0,1-2.2.38,3.06,3.06,0,0,1-1.78-.5,3.46,3.46,0,0,1-1.15-1.71c-.23-.73-.58-1.1-1.06-1.1a1.43,1.43,0,0,0-1,.48,16.71,16.71,0,0,1-2.95,2.13,6.83,6.83,0,0,1-3.48.89,7,7,0,0,1-2.49-.43,6.34,6.34,0,0,1-2-1.22,5.47,5.47,0,0,1-1.34-1.9A6.09,6.09,0,0,1,139.77,160.15Zm3.16-.57a4.87,4.87,0,0,0,1.4,3.57,4.73,4.73,0,0,0,3.55,1.42,4.07,4.07,0,0,0,2-.53,16.41,16.41,0,0,0,1.87-1.2,3.92,3.92,0,0,0,1.2-1.51,4.49,4.49,0,0,0,.43-1.9v-9.12h-1.68a8.32,8.32,0,0,0-3.62.77,8.55,8.55,0,0,0-2.76,2,8.71,8.71,0,0,0-1.76,2.95A10.36,10.36,0,0,0,142.93,159.58Z"/><path d="M164.87,160.49h.1a1.2,1.2,0,0,1,.86.31,1.11,1.11,0,0,1,.34.84,2.59,2.59,0,0,0,.24,1.06,1.86,1.86,0,0,0,.67.81,17.73,17.73,0,0,0,2.52,1.3,7,7,0,0,0,2.71.53,7.34,7.34,0,0,0,2-.29,5.36,5.36,0,0,0,1.73-.84,4.36,4.36,0,0,0,1.2-1.39,4.19,4.19,0,0,0,.45-2c0-2-1.4-3.63-4.22-4.75l-2.21-.81c-.7-.29-1.43-.64-2.18-1a10.94,10.94,0,0,1-2-1.39,6.65,6.65,0,0,1-1.49-1.82,4.85,4.85,0,0,1-.58-2.38,5,5,0,0,1,.68-2.64,5.86,5.86,0,0,1,1.72-1.82,7.94,7.94,0,0,1,2.38-1.08,9.9,9.9,0,0,1,2.62-.36,18.33,18.33,0,0,1,6.52,1.15v3.89h-.09c-.77,0-1.15-.4-1.15-1.2a1.94,1.94,0,0,0-.6-1.42,4.76,4.76,0,0,0-1.44-1,7.2,7.2,0,0,0-1.76-.55,8.12,8.12,0,0,0-1.58-.17,5.17,5.17,0,0,0-1.78.31,4.57,4.57,0,0,0-1.51.89,4.37,4.37,0,0,0-1,1.37,3.87,3.87,0,0,0-.38,1.75,3.5,3.5,0,0,0,.52,1.92,5.39,5.39,0,0,0,1.37,1.41,9.34,9.34,0,0,0,1.8,1l1.83.79,2,.82c.71.29,1.39.6,2,.94a8.1,8.1,0,0,1,1.75,1.17,5.15,5.15,0,0,1,1.23,1.59,4.9,4.9,0,0,1,.45,2.2,5.56,5.56,0,0,1-.74,3,6.42,6.42,0,0,1-1.94,2,8.39,8.39,0,0,1-2.72,1.15,12.82,12.82,0,0,1-3,.36,18.15,18.15,0,0,1-7.34-1.53Z"/><path d="M185.37,144.12v-1.06h3.21v-5.13l2.93,2.21v2.92h6.05v1.06h-3.94a2,2,0,0,0-2.11,2.11v13a10.92,10.92,0,0,0,.19,2.07,5.92,5.92,0,0,0,.65,1.8,3.65,3.65,0,0,0,1.27,1.29,3.76,3.76,0,0,0,2,.51,5.89,5.89,0,0,0,1.92-.34v.91a8.78,8.78,0,0,1-1.3.36,6.54,6.54,0,0,1-1.25.12,8.6,8.6,0,0,1-3.07-.48,4.63,4.63,0,0,1-2-1.41,5.72,5.72,0,0,1-1.06-2.28,14.19,14.19,0,0,1-.31-3.08V146.23a2,2,0,0,0-2.11-2.11Z"/><path d="M201.11,154.15a15.09,15.09,0,0,1,.62-4.32,11.53,11.53,0,0,1,1.85-3.65,8.82,8.82,0,0,1,7.27-3.45,8,8,0,0,1,3.87.86,6.92,6.92,0,0,1,2.49,2.31,9.3,9.3,0,0,1,1.32,3.33,19.42,19.42,0,0,1,.39,3.91H206.39a2,2,0,0,0-1.54.6,1.9,1.9,0,0,0-.48,1.56,21.12,21.12,0,0,0,.82,3.63,11.9,11.9,0,0,0,1.58,3.24,8.34,8.34,0,0,0,2.48,2.33,6.57,6.57,0,0,0,3.48.88,12.69,12.69,0,0,0,3.09-.38,19.58,19.58,0,0,0,3.1-1.06v.72a22,22,0,0,1-3.55,1.08,16.1,16.1,0,0,1-3.27.36,10.87,10.87,0,0,1-4.68-1,10.44,10.44,0,0,1-3.45-2.56,10.75,10.75,0,0,1-2.14-3.8A14.67,14.67,0,0,1,201.11,154.15Zm12.53-1.73a2.11,2.11,0,0,0,1.56-.6,1.81,1.81,0,0,0,.5-1.56,15.2,15.2,0,0,0-.29-2.44,7.42,7.42,0,0,0-.79-2.19,4.4,4.4,0,0,0-1.51-1.58,4.65,4.65,0,0,0-2.5-.6,5,5,0,0,0-3.07.86,6,6,0,0,0-1.8,2.19,9.92,9.92,0,0,0-.89,2.9c-.16,1.06-.27,2.06-.33,3Z"/><path d="M239.22,144.12v-1.06h3.22v-5.13l2.92,2.21v2.92h6v1.06h-3.93a2,2,0,0,0-2.12,2.11v13a10.92,10.92,0,0,0,.2,2.07,5.66,5.66,0,0,0,.64,1.8,3.64,3.64,0,0,0,3.29,1.8,5.89,5.89,0,0,0,1.92-.34v.91a9,9,0,0,1-1.29.36,6.69,6.69,0,0,1-1.25.12,8.57,8.57,0,0,1-3.07-.48,4.6,4.6,0,0,1-2-1.41,5.85,5.85,0,0,1-1.05-2.28,13.59,13.59,0,0,1-.31-3.08V146.23a2,2,0,0,0-2.12-2.11Z"/><path d="M255.49,132.5h4a2,2,0,0,1,2.12,2.12v28a2,2,0,0,0,2.11,2.11h1.1v.77h-9.36v-.77h1.11a2,2,0,0,0,2.11-2.11V135.38a2.14,2.14,0,0,0-.58-1.56,2,2,0,0,0-1.53-.6h-1.11Zm6.63,15.22a12.6,12.6,0,0,1,3.43-3.58,8.1,8.1,0,0,1,4.73-1.41,6,6,0,0,1,2.64.53,4.86,4.86,0,0,1,1.8,1.46,6.55,6.55,0,0,1,1,2.16,10.19,10.19,0,0,1,.34,2.66v13.11a2,2,0,0,0,2.11,2.11h1.1v.77h-9.36v-.77H271a2,2,0,0,0,2.12-2.11V150.22A14.62,14.62,0,0,0,273,148a4.8,4.8,0,0,0-.65-1.82,3.19,3.19,0,0,0-1.34-1.2,5,5,0,0,0-2.26-.44,6.81,6.81,0,0,0-3.55,1A21.13,21.13,0,0,0,262.12,147.72Z"/><path d="M283.43,154.15a15.09,15.09,0,0,1,.62-4.32,11.53,11.53,0,0,1,1.85-3.65,8.82,8.82,0,0,1,7.27-3.45,8,8,0,0,1,3.87.86,6.92,6.92,0,0,1,2.49,2.31,9.3,9.3,0,0,1,1.32,3.33,19.42,19.42,0,0,1,.39,3.91H288.71a2,2,0,0,0-1.54.6,1.9,1.9,0,0,0-.48,1.56,20.22,20.22,0,0,0,.82,3.63,11.9,11.9,0,0,0,1.58,3.24,8.3,8.3,0,0,0,2.47,2.33,6.62,6.62,0,0,0,3.48.88,12.71,12.71,0,0,0,3.1-.38,19.58,19.58,0,0,0,3.1-1.06v.72a21.76,21.76,0,0,1-3.56,1.08,16,16,0,0,1-3.26.36,10.87,10.87,0,0,1-4.68-1,10.58,10.58,0,0,1-3.46-2.56,10.88,10.88,0,0,1-2.13-3.8A14.67,14.67,0,0,1,283.43,154.15ZM296,152.42a2.11,2.11,0,0,0,1.56-.6,1.84,1.84,0,0,0,.5-1.56,15.2,15.2,0,0,0-.29-2.44,7.42,7.42,0,0,0-.79-2.19,4.4,4.4,0,0,0-1.51-1.58,4.65,4.65,0,0,0-2.5-.6,5,5,0,0,0-3.07.86,6,6,0,0,0-1.8,2.19,9.92,9.92,0,0,0-.89,2.9c-.16,1.06-.27,2.06-.33,3Z"/><path d="M321.78,143.26h4a2,2,0,0,1,2.11,2.11v17.28a2,2,0,0,0,2.12,2.11h1.1v.77h-9.36v-.77h1.1a2,2,0,0,0,2.12-2.11V146.14a2,2,0,0,0-2.12-2.12h-1.1Zm6.67,4.22a11.7,11.7,0,0,1,3.36-3.46,8.31,8.31,0,0,1,4.66-1.29,6,6,0,0,1,2.64.53,4.86,4.86,0,0,1,1.8,1.46,6.36,6.36,0,0,1,1,2.16,10.19,10.19,0,0,1,.34,2.66v13.11a2,2,0,0,0,2.11,2.11h1.1v.77h-9.36v-.77h1.11a2,2,0,0,0,2.11-2.11V150.22a14.62,14.62,0,0,0-.17-2.26,4.8,4.8,0,0,0-.65-1.82,3.19,3.19,0,0,0-1.34-1.2,5,5,0,0,0-2.26-.44,7.32,7.32,0,0,0-3.5.87A13.86,13.86,0,0,0,328.45,147.48Z"/><path d="M350.34,160.15a9.52,9.52,0,0,1,1-4.34,10.62,10.62,0,0,1,2.64-3.34,11.79,11.79,0,0,1,3.84-2.13,13.9,13.9,0,0,1,4.54-.75h1.58v-.19a8.31,8.31,0,0,0-.45-3,4.81,4.81,0,0,0-1.2-1.8,3.84,3.84,0,0,0-1.66-.86,7.93,7.93,0,0,0-1.77-.22,6.63,6.63,0,0,0-1.85.27,9,9,0,0,0-1.85.74,1.68,1.68,0,0,0-.62.77c-.16.35-.32.71-.46,1.08a4.73,4.73,0,0,1-.5,1,.9.9,0,0,1-.77.44h-.67V144.5a32.2,32.2,0,0,1,4.05-1.27,16.33,16.33,0,0,1,3.67-.45,8.08,8.08,0,0,1,5.16,1.46c1.24,1,1.85,2.63,1.85,5v10.51a15.67,15.67,0,0,0,.1,1.75,5.38,5.38,0,0,0,.45,1.73,3.19,3.19,0,0,0,1,1.27,2.37,2.37,0,0,0,1.75.34l.15.77a8.24,8.24,0,0,1-2.21.38,3.08,3.08,0,0,1-1.78-.5,3.46,3.46,0,0,1-1.15-1.71c-.22-.73-.57-1.1-1.05-1.1a1.41,1.41,0,0,0-1,.48,17.09,17.09,0,0,1-2.95,2.13,6.83,6.83,0,0,1-3.48.89,7,7,0,0,1-2.5-.43,6.34,6.34,0,0,1-2-1.22,5.6,5.6,0,0,1-1.34-1.9A6.09,6.09,0,0,1,350.34,160.15Zm3.17-.57a4.86,4.86,0,0,0,1.39,3.57,4.75,4.75,0,0,0,3.55,1.42,4.07,4.07,0,0,0,2-.53,16.41,16.41,0,0,0,1.87-1.2,3.92,3.92,0,0,0,1.2-1.51,4.49,4.49,0,0,0,.43-1.9v-9.12h-1.68a8.32,8.32,0,0,0-3.62.77,8.78,8.78,0,0,0-2.76,2,8.69,8.69,0,0,0-1.75,2.95A10.36,10.36,0,0,0,353.51,159.58Z"/><path d="M372.8,144.12v-1.06H376v-5.13l2.93,2.21v2.92H385v1.06h-3.94a2,2,0,0,0-2.11,2.11v13a10.92,10.92,0,0,0,.19,2.07,5.67,5.67,0,0,0,.65,1.8,3.56,3.56,0,0,0,1.27,1.29,3.74,3.74,0,0,0,2,.51,5.89,5.89,0,0,0,1.92-.34v.91a8.78,8.78,0,0,1-1.3.36,6.62,6.62,0,0,1-1.25.12,8.6,8.6,0,0,1-3.07-.48,4.57,4.57,0,0,1-2-1.41,5.72,5.72,0,0,1-1.06-2.28,13.59,13.59,0,0,1-.31-3.08V146.23a2,2,0,0,0-2.11-2.11Z"/><path d="M389,143.26h4a2,2,0,0,1,2.11,2.11v13.2a14.49,14.49,0,0,0,.17,2.25,5.13,5.13,0,0,0,.62,1.83,3.2,3.2,0,0,0,1.32,1.2,5.06,5.06,0,0,0,2.26.43,7.54,7.54,0,0,0,3.55-.86,14.68,14.68,0,0,0,3-2.12l-.09.15a11.22,11.22,0,0,1-3.34,3.41,8.39,8.39,0,0,1-4.63,1.24,5.84,5.84,0,0,1-2.64-.55,4.87,4.87,0,0,1-1.8-1.49,6.37,6.37,0,0,1-1-2.18,9.85,9.85,0,0,1-.34-2.64v-13.1a2.09,2.09,0,0,0-.57-1.54,2.11,2.11,0,0,0-1.54-.58H389Zm14.21.76v-.76h4a2,2,0,0,1,2.11,2.11v17.28a2,2,0,0,0,2.11,2.11h1.1v.77h-4a2,2,0,0,1-2.11-2.11V146.14a2.09,2.09,0,0,0-.57-1.54,2.11,2.11,0,0,0-1.54-.58Z"/><path d="M416.91,143.26h4a2,2,0,0,1,2.11,2.11v17.28a2,2,0,0,0,2.11,2.11h1.1v.77h-9.36v-.77H418a2,2,0,0,0,2.11-2.11V146.14A2,2,0,0,0,418,144h-1.11Zm6.58,4.08a11.92,11.92,0,0,1,2.9-3.34,6.71,6.71,0,0,1,4.2-1.27,3.32,3.32,0,0,1,.72.05v4.7h0c-.84,0-1.25-.4-1.25-1.2s-.39-1.2-1.15-1.2a12.27,12.27,0,0,0-1.49.17,5,5,0,0,0-1.3.41,9.21,9.21,0,0,0-1.27.72,10.14,10.14,0,0,0-1.37,1.1Z"/><path d="M435.87,154.15a14.75,14.75,0,0,1,.63-4.32,11.13,11.13,0,0,1,1.85-3.65,9.09,9.09,0,0,1,3-2.52,9.21,9.21,0,0,1,4.23-.93,7.93,7.93,0,0,1,3.86.86,7,7,0,0,1,2.5,2.31,9.68,9.68,0,0,1,1.32,3.33,20.17,20.17,0,0,1,.38,3.91H441.16a2,2,0,0,0-1.54.6,1.83,1.83,0,0,0-.48,1.56,21.09,21.09,0,0,0,.81,3.63,12.22,12.22,0,0,0,1.59,3.24A8.19,8.19,0,0,0,444,164.5a6.62,6.62,0,0,0,3.48.88,12.77,12.77,0,0,0,3.1-.38,19.14,19.14,0,0,0,3.09-1.06v.72a21.66,21.66,0,0,1-3.55,1.08,16,16,0,0,1-3.26.36,10.87,10.87,0,0,1-4.68-1,10.48,10.48,0,0,1-3.46-2.56,11.06,11.06,0,0,1-2.14-3.8A14.67,14.67,0,0,1,435.87,154.15Zm12.53-1.73a2.11,2.11,0,0,0,1.56-.6,1.85,1.85,0,0,0,.51-1.56,16.42,16.42,0,0,0-.29-2.44,7.71,7.71,0,0,0-.79-2.19,4.42,4.42,0,0,0-1.52-1.58,4.64,4.64,0,0,0-2.49-.6,5,5,0,0,0-3.07.86,6,6,0,0,0-1.8,2.19,9.92,9.92,0,0,0-.89,2.9c-.16,1.06-.27,2.06-.34,3Z"/></g></g></svg>